<?xml version="1.0" encoding="UTF-8"?><svg id="a" xmlns="http://www.w3.org/2000/svg" viewBox="0 0 2160 2160"><path d="M900.37,1132.55c-149.96-20.18-286.94-75.87-415.35-153.71-71.2-43.16-134.47-95.63-178.82-167.83-65.22-106.17-27.4-188.13,95.59-206.24,55.89-8.23,110.63-4.38,166.02,9.48,141.14,35.32,282.88,68.38,424.82,100.36,57.69,12.99,110.64-2.4,157.76-38.42,15.85-12.12,18.93-24.43,10.97-43.33-25.77-61.19-38.72-125.15-36.62-191.91,4.78-151.49,123.38-242.49,235.39-265.94,66.12-13.85,121.24,25.05,133.09,98.18,7.26,44.79,9.52,93.06,.79,137.15-13.48,68.1,.74,130.57,21.43,192.75,10.75,32.31,28.32,62.68,45.68,92.24,4.48,7.62,19.52,10.32,30.28,12.71,23.62,5.24,50.37,3.44,71.02,13.96,155.63,79.32,236.15,226.51,221.17,399.97-3.94,45.6-18.82,84.74-65.64,104.3-6.46,2.7-12.61,12.43-14.07,19.86-36.7,185.95-166.47,276.32-335.32,325.23-21.64,6.27-32.56,15.48-39.64,36.1-29.23,85.05-65.57,166.67-117.22,241.11-62.1,89.5-145.71,137.99-255.34,139.18-16.78,.18-33.8-.91-50.33-3.69-80.76-13.57-125.23-75.09-104.74-154.59,10.85-42.12,33.45-81.7,53.98-120.72,30.03-57.06,62.98-112.58,94.68-168.76-2.03-2.14-4.06-4.28-6.09-6.42-45.45,18.38-90.28,38.5-136.47,54.78-101.26,35.69-205.24,56.56-313.37,47.84-65.75-5.3-127.39-22.94-180.49-64.31-94.95-73.96-93.3-193.2,3.51-265.57,57.22-42.77,125.8-55.25,192.11-74.81,98.28-28.99,195.66-61,293.42-91.73l-2.19-7.23Zm309.49-389.58c-20.34,12.23-37.31,23.49-55.21,33-63.85,33.94-131.78,34.85-199.83,19.06-137.48-31.9-274.58-65.44-411.5-99.67-50.44-12.61-100.39-11.56-150.26-1.06-38.81,8.17-48.67,31.19-24.95,64.14,24.15,33.54,49.52,68.55,81.64,93.59,135.53,105.67,287.48,174.74,460.42,192.48,13.09,1.34,26.52,4.18,38.67,9.1,61.3,24.81,73.11,94.57,22.47,136.99-16.01,13.41-35.01,25.5-54.69,31.91-118.04,38.46-237.12,73.76-354.85,113.13-37.21,12.45-75.04,29.29-105.97,52.82-45.18,34.36-41.4,80.36,3.21,115.26,51.11,39.99,111.88,49.6,173.76,48.2,154.37-3.5,297.22-49.15,427.46-130.72,46.3-29,93.48-32.53,147.38-30.46-3.52,10.06-5.23,17.66-8.68,24.38-61.16,119.2-122.81,238.14-183.63,357.51-13.62,26.73-26.17,54.27-36.11,82.53-7.23,20.57,1.26,37.62,24.39,41.79,63.62,11.47,126.23,5.38,177.37-35.36,89.66-71.43,129.57-174.78,169.05-277.98-34.93-9.38-67.22-18.06-99.5-26.73,.6-2.55,1.21-5.09,1.81-7.64,4.97,.27,9.99,.19,14.91,.87,48.49,6.65,95.05-.46,141.44-15.74,82.34-27.12,146.55-82.12,212.28-134.72,100.3-80.26,118.19-190.58,110.01-309.67-.47-6.91-2.2-14.93-6.29-20.12-7.66-9.72-16.36-22.29-26.8-24.86-6.87-1.69-20.32,10.27-26.05,19.18-32.73,50.9-77.44,84.53-135.91,100.2-99.98,26.79-195.26,8.12-288.61-29.43-2.53-1.02-4.36-3.78-10.38-9.23,34.41,1.86,63.4,4.3,92.42,4.82,66.01,1.19,130.77-4.38,193.34-29.23,75.63-30.03,136.64-149.78,69.93-233.41-19.89-24.94-36.75-52.48-58.01-76.11-50.88-56.54-87.96-119.85-105.17-194.41-14.73-63.84-32.14-126.39-16.54-193.95,8.18-35.41,5.29-74.03,3.16-110.96-1.77-30.8-14.72-38.84-45.13-30.39-91.12,25.3-192.02,108.41-181.58,245.81,6.58,86.6,27.3,169.64,50.75,252.49,1.6,5.64,1.36,11.8,1.98,17.72-1.96,.57-3.91,1.14-5.87,1.71-8.54-11.95-17.09-23.9-26.34-36.83Zm444.36,67.88c25.09,41.97,45.45,84.65,49.74,133.77,.47,5.41,6.02,12.11,11.07,15.08,22.94,13.5,46.55,25.88,67.16,37.16-25.16-69.84-62.7-137.42-127.97-186Z"/></svg>