<?xml version="1.0" encoding="UTF-8"?><svg id="a" xmlns="http://www.w3.org/2000/svg" viewBox="0 0 2160 2160"><path d="M1257.2,1076.46c97.76,30.73,195.15,62.74,293.42,91.73,66.31,19.56,134.89,32.04,192.11,74.81,96.8,72.37,98.46,191.61,3.51,265.57-53.1,41.36-114.75,59-180.49,64.31-108.12,8.72-212.1-12.15-313.37-47.84-46.19-16.28-91.02-36.4-136.47-54.78-2.03,2.14-4.06,4.28-6.09,6.42,31.7,56.18,64.65,111.7,94.68,168.76,20.54,39.02,43.13,78.6,53.98,120.72,20.49,79.5-23.99,141.01-104.74,154.59-16.53,2.78-33.56,3.87-50.33,3.69-109.62-1.19-193.24-49.68-255.34-139.18-51.65-74.44-87.99-156.06-117.22-241.11-7.08-20.62-18-29.83-39.64-36.1-168.85-48.91-298.62-139.28-335.32-325.23-1.47-7.43-7.61-17.16-14.07-19.86-46.82-19.56-61.7-58.7-65.64-104.3-14.98-173.46,65.54-320.66,221.17-399.97,20.65-10.52,47.39-8.72,71.02-13.96,10.76-2.39,25.8-5.09,30.28-12.71,17.37-29.56,34.93-59.93,45.68-92.24,20.69-62.18,34.91-124.65,21.43-192.75-8.73-44.09-6.47-92.36,.79-137.15,11.85-73.13,66.97-112.02,133.09-98.18,112.01,23.46,230.61,114.45,235.39,265.94,2.1,66.75-10.85,130.71-36.62,191.91-7.96,18.9-4.88,31.22,10.97,43.33,47.12,36.02,100.08,51.42,157.76,38.42,141.95-31.97,283.68-65.03,424.82-100.36,55.38-13.86,110.13-17.71,166.02-9.48,122.99,18.11,160.81,100.07,95.59,206.24-44.35,72.2-107.63,124.67-178.82,167.83-128.42,77.84-265.39,133.53-415.35,153.71l-2.19,7.23Zm-333.63-359.97c-1.96-.57-3.91-1.14-5.87-1.71,.62-5.92,.38-12.08,1.98-17.72,23.45-82.85,44.17-165.89,50.75-252.49,10.44-137.4-90.46-220.51-181.58-245.81-30.41-8.44-43.35-.4-45.13,30.39-2.13,36.93-5.01,75.55,3.16,110.96,15.6,67.57-1.81,130.11-16.54,193.95-17.2,74.56-54.29,137.87-105.17,194.41-21.26,23.63-38.12,51.17-58.01,76.11-66.71,83.63-5.7,203.38,69.93,233.41,62.57,24.84,127.33,30.42,193.34,29.23,29.02-.52,58.01-2.96,92.42-4.82-6.02,5.45-7.85,8.21-10.38,9.23-93.35,37.55-188.63,56.22-288.61,29.43-58.47-15.67-103.18-49.3-135.91-100.2-5.73-8.91-19.18-20.87-26.05-19.18-10.44,2.57-19.14,15.14-26.8,24.86-4.09,5.19-5.82,13.22-6.29,20.12-8.18,119.09,9.71,229.42,110.01,309.67,65.73,52.6,129.95,107.6,212.28,134.72,46.39,15.28,92.95,22.39,141.44,15.74,4.92-.67,9.94-.6,14.91-.87,.6,2.55,1.21,5.09,1.81,7.64-32.28,8.67-64.57,17.35-99.5,26.73,39.48,103.2,79.38,206.55,169.05,277.98,51.14,40.74,113.75,46.83,177.37,35.36,23.13-4.17,31.62-21.22,24.39-41.79-9.94-28.26-22.48-55.8-36.11-82.53-60.82-119.37-122.48-238.31-183.63-357.51-3.45-6.72-5.16-14.32-8.68-24.38,53.91-2.08,101.08,1.46,147.38,30.46,130.25,81.56,273.09,127.22,427.46,130.72,61.88,1.4,122.64-8.21,173.76-48.2,44.61-34.9,48.38-80.89,3.21-115.26-30.93-23.53-68.76-40.37-105.97-52.82-117.72-39.38-236.81-74.67-354.85-113.13-19.68-6.41-38.68-18.5-54.69-31.91-50.64-42.42-38.83-112.18,22.47-136.99,12.15-4.92,25.58-7.75,38.67-9.1,172.93-17.74,324.89-86.81,460.42-192.48,32.11-25.04,57.49-60.05,81.64-93.59,23.72-32.95,13.86-55.97-24.95-64.14-49.87-10.5-99.82-11.55-150.26,1.06-136.92,34.22-274.03,67.77-411.5,99.67-68.05,15.79-135.98,14.88-199.83-19.06-17.9-9.51-34.86-20.77-55.21-33-9.25,12.93-17.79,24.88-26.34,36.83Zm-545.99,217.05c20.61-11.27,44.21-23.65,67.16-37.16,5.04-2.97,10.59-9.67,11.07-15.08,4.29-49.12,24.65-91.79,49.74-133.77-65.27,48.59-102.8,116.17-127.97,186Z"/></svg>