<?xml version="1.0" encoding="UTF-8"?><svg id="a" xmlns="http://www.w3.org/2000/svg" viewBox="0 0 2160 2160"><path d="M1794.96,1528.82c-22.31,105.9-73.22,193.49-170.82,250.47-193.82,113.16-392.59,128.23-599.4,39.31-121.04-52.04-228.26-125.38-329.39-208.48-13.81-11.35-23.62-14.67-41.14-4.37-91.53,53.85-179.31,42.29-247.74-40.42-107.71-130.18-147.36-283.07-122.76-449.25,16.94-114.42,81.28-206.57,160.01-288.82,34.55-36.1,72.83-66.9,121.51-81.69,14.46-4.39,15.25-11.93,13.14-25.07-3.68-22.92-6.88-46.28-6.55-69.41,2.41-167.07,135.78-324.76,300.13-358.17,114.67-23.32,221.52,.78,325.97,47.14,13.56,6.02,31.21,4.38,46.87,3.78,35.88-1.39,72.83-11.12,107.32-5.35,99.27,16.62,191.57,53.83,274.13,112.6,47.71,33.96,86.94,75.45,112.98,128.91,31.33,64.31,63.86,128.05,96.21,191.86,23.29,45.94,42.58,92.72,46.45,145.17,6.78,92.02-10.46,180.41-42.76,265.34-17.76,46.68-26.43,92.66-14.16,142.82-9.72,67.93-15.87,136.62-29.99,203.62Zm-470.1-910.44c-5.65-2.85-10.79-4.68-15.08-7.71-101.53-71.69-217.38-81.29-336.31-78.37-16.18,.4-40.6,13.66-45.43-9.44-2.39-11.44,16.1-31.36,29.66-41.25,38.08-27.77,83.35-36.51,129.53-37.06,22-.26,34.32-9.76,47.12-33.98-41.89-10.09-80.64-22.2-120.31-28.47-150.25-23.77-297.12,60.14-343.27,194.03-17.29,50.16-16.83,100.68-2.06,151.02,2.57,8.77,9.75,19.3,17.61,22.94,92.15,42.61,134.16,122.51,160.34,213.95,17.27,60.33,22.72,64.61,86.47,53.59,98.57-17.03,187.78-58.86,276.17-103.36,13.14-6.61,28.39-30.17,44.93-6.77,15.15,21.43-8.72,31.81-19.15,43.08-77.26,83.42-175.7,122.65-287,133.24-24.95,2.37-50.06,3.06-77.06,4.65-2.27,38.71-4.52,77.3-6.82,115.89-.22,3.72,.41,8.11-1.34,10.99-4.67,7.71-10.41,14.78-15.72,22.1-5.34-7.15-14.58-13.86-15.43-21.51-10.54-94.75-42.59-182.78-81.57-268.79-1.54-3.39-3.08-6.78-4.69-10.14-57.67-119.82-144.57-139.98-245.98-52.87-128.67,110.53-165.25,251.57-126.74,414.2,16.21,68.44,41.63,132.84,82.57,191.05,51.44,73.14,115.73,94.23,192.89,49.24,49.04-28.6,90.26-70.7,134.6-107.22,8.45-6.96,15.08-16.11,22.55-24.25,2.41,1.33,4.82,2.66,7.23,3.99-15.94,28.85-30.69,58.45-48.11,86.38-21.87,35.06-22.92,34.61,9.43,59.81,111.58,86.92,228.95,163.26,366.69,203.12,172.79,50,329.64,12,474.92-86.56,55.92-37.94,78.3-97.82,94.67-159.98,17.91-67.98,25.69-137.17,21.29-207.51-3.3-52.83,5.51-102.75,25.04-152.68,29.99-76.69,50.88-156.89,37.16-240.02-5.76-34.89-21.96-68.68-37.14-101.24-29.04-62.32-61.38-123.1-91.15-185.09-22.23-46.29-57.82-79.68-99.55-107.1-69.4-45.6-146.02-74.14-227.23-89.58-48.71-9.26-91.69,4.77-129.32,41.13,91.57,69.94,112.38,96.27,115.61,146.55Z"/><path d="M474.43,1088.17c20.89-49.5,25.8-107.95,77.15-140.15,8.8-5.51,22.06-3.9,39.28-6.47-101.67,111.4-86.52,235.66-62.34,361.13,4.22,21.87,10.02,43.62,17.31,64.66,6.58,19.02,4.81,31.75-16.02,39.23-6.37,2.29-10.98,9.49-16.4,14.45,1.56,2.79,3.12,5.57,4.69,8.36,16.77-6.16,34.45-10.56,50.13-18.79,57.77-30.3,87.76-82.38,103.48-142.7,22.19-85.13,23.72-171.22,1.9-256.91-4.32-16.97-10.86-33.78-18.97-49.31-31.18-59.71-98.96-66.36-142.2-13.63-33.06,40.31-39.18,89.13-38.01,140.13Z"/><path d="M891.07,1333.23c22.59,116.22,226.03,178.23,358.78,107.02-138.12,13.99-249.21-40.71-358.78-107.02Z"/><path d="M1211.2,1255.01c-100.3,44.1-200.89,29.84-305.64-2.5,60,80.81,205.6,80.76,305.64,2.5Z"/></svg>