<?xml version="1.0" encoding="UTF-8"?><svg id="a" xmlns="http://www.w3.org/2000/svg" viewBox="0 0 2160 2160"><path d="M335.05,1325.7c12.26-50.16,3.59-96.15-14.16-142.82-32.31-84.93-49.54-173.32-42.76-265.34,3.86-52.45,23.16-99.24,46.45-145.17,32.35-63.81,64.88-127.55,96.21-191.86,26.04-53.46,65.27-94.95,112.98-128.91,82.57-58.77,174.86-95.98,274.13-112.6,34.49-5.77,71.44,3.96,107.32,5.35,15.66,.61,33.31,2.24,46.87-3.78,104.45-46.35,211.3-70.45,325.97-47.14,164.35,33.42,297.72,191.11,300.13,358.17,.33,23.13-2.87,46.49-6.55,69.41-2.11,13.14-1.32,20.67,13.14,25.07,48.67,14.79,86.95,45.58,121.51,81.69,78.73,82.25,143.07,174.41,160.01,288.82,24.61,166.18-15.05,319.07-122.76,449.25-68.43,82.7-156.21,94.26-247.74,40.42-17.51-10.3-27.33-6.98-41.14,4.37-101.13,83.1-208.35,156.43-329.39,208.48-206.81,88.92-405.58,73.85-599.4-39.31-97.6-56.98-148.51-144.57-170.82-250.47-14.11-67.01-20.27-135.69-29.99-203.62ZM950.75,472.34c-37.63-36.36-80.62-50.39-129.32-41.13-81.21,15.44-157.82,43.98-227.23,89.58-41.73,27.42-77.32,60.81-99.55,107.1-29.77,61.99-62.1,122.77-91.15,185.09-15.17,32.56-31.38,66.36-37.14,101.24-13.72,83.13,7.17,163.33,37.16,240.02,19.53,49.93,28.34,99.84,25.04,152.68-4.4,70.34,3.39,139.53,21.29,207.51,16.37,62.16,38.75,122.04,94.67,159.98,145.27,98.56,302.12,136.56,474.92,86.56,137.74-39.86,255.12-116.19,366.69-203.12,32.35-25.2,31.3-24.75,9.43-59.81-17.42-27.93-32.17-57.52-48.11-86.38,2.41-1.33,4.82-2.66,7.23-3.99,7.47,8.14,14.11,17.29,22.55,24.25,44.34,36.52,85.55,78.62,134.6,107.22,77.16,44.99,141.44,23.91,192.89-49.24,40.94-58.21,66.36-122.61,82.57-191.05,38.51-162.63,1.93-303.67-126.74-414.2-101.41-87.11-188.32-66.95-245.98,52.87-1.62,3.36-3.15,6.75-4.69,10.14-38.99,86-71.03,174.04-81.57,268.79-.85,7.65-10.09,14.36-15.43,21.51-5.31-7.32-11.06-14.39-15.72-22.1-1.74-2.88-1.12-7.27-1.34-10.99-2.3-38.59-4.55-77.18-6.82-115.89-27-1.58-52.11-2.27-77.06-4.65-111.29-10.59-209.74-49.82-287-133.24-10.43-11.26-34.3-21.65-19.15-43.08,16.54-23.4,31.8,.15,44.93,6.77,88.39,44.5,177.6,86.33,276.17,103.36,63.74,11.01,69.2,6.73,86.47-53.59,26.18-91.44,68.19-171.35,160.34-213.95,7.86-3.64,15.04-14.17,17.61-22.94,14.77-50.35,15.23-100.86-2.06-151.02-46.15-133.89-193.01-217.8-343.27-194.03-39.67,6.28-78.42,18.39-120.31,28.47,12.8,24.22,25.11,33.72,47.12,33.98,46.18,.55,91.45,9.29,129.53,37.06,13.56,9.89,32.05,29.8,29.66,41.25-4.83,23.1-29.25,9.83-45.43,9.44-118.94-2.91-234.79,6.68-336.31,78.37-4.29,3.03-9.43,4.86-15.08,7.71,3.22-50.28,24.04-76.6,115.61-146.55Z"/><path d="M1685.57,1088.68c-20.89-49.5-25.8-107.95-77.15-140.15-8.8-5.51-22.06-3.9-39.28-6.47,101.67,111.4,86.52,235.66,62.34,361.13-4.22,21.87-10.02,43.62-17.31,64.66-6.58,19.02-4.81,31.75,16.02,39.23,6.37,2.29,10.98,9.49,16.4,14.45-1.56,2.79-3.12,5.57-4.69,8.36-16.77-6.16-34.45-10.56-50.13-18.79-57.77-30.3-87.76-82.38-103.48-142.7-22.19-85.13-23.72-171.22-1.9-256.91,4.32-16.97,10.86-33.78,18.97-49.31,31.18-59.71,98.96-66.36,142.2-13.63,33.06,40.31,39.18,89.13,38.01,140.13Z"/><path d="M1268.93,1333.74c-22.59,116.22-226.03,178.23-358.78,107.02,138.12,13.99,249.21-40.71,358.78-107.02Z"/><path d="M948.8,1255.51c100.3,44.1,200.89,29.84,305.64-2.5-60,80.81-205.6,80.76-305.64,2.5Z"/></svg>