<?xml version="1.0" encoding="UTF-8"?><svg id="a" xmlns="http://www.w3.org/2000/svg" viewBox="0 0 2160 2160"><path d="M1419.03,920c86.52,24.17,172.28,51.72,259.81,71.38,64.58,14.51,131.28,20.73,197.38,26.99,80.52,7.62,142.59,84.97,132.32,169.46-13.05,107.37-91.7,183.12-210.65,202.33-94.99,15.34-186.67-1.23-276.89-30.05-72.55-23.18-144.99-46.74-217.49-70.06-4.78-1.54-9.76-2.48-20.11-5.06,5.07,12.39,8.39,20.75,11.9,29.04,32.69,77.29,53.17,157.44,58.2,241.47,3.39,56.75-17.56,102.57-59.45,139.72-90.04,79.86-210.78,94.02-326.37,38.86-80.76-38.54-140.7-100.41-192.09-171.51-10.04-13.9-19.33-18.33-36.66-16.85-87.17,7.46-172.47-1.28-248.75-47.57-34.64-21.03-64.33-50.21-99.18-78.02,4.01-.21,2.98-.45,2.28-.08-70.4,38.09-125.68,31.33-189.1-58.9-32.6-46.37-46.81-100.48-51.01-155.77-14.9-196.62,27.97-377.86,149.8-536.68,40.94-53.37,82.24-64.58,136.3-36.8,1.66-.38,4.01-.21,4.88-1.27,70.13-85.04,167.29-109.91,270.35-122.04,67.54-7.95,136.31-11.46,200.93,8.64,87.57,27.24,177.11,33.38,266.89,38.36,77.32,4.29,151-13.67,219.43-52.12,84.97-47.75,171.79-91.83,269.51-107.32,23.13-3.67,47.38-4.34,70.68-2.03,72.28,7.15,122.2,64.76,127.46,144.24,11.69,176.73-108.98,329.08-283.74,356.22-54.43,8.45-109.48,12.87-164.25,19.14-.79,2.1-1.58,4.2-2.37,6.29Zm-401.09,150.37c-79.02,61.94-115.04,142.19-106,241.82,5.15,56.79,18.11,110.98,57.19,155.06,33.06,37.29,62.81,37.53,94.02-.87,15.87-19.52,31.1-41.19,40.06-64.42,29.57-76.7,56.19-154.54,83.87-231.98,14.51-40.61,10.64-80.43-11.53-116.47-56.52-91.86-112.53-184.55-205.02-246.59-3.58-2.4-8.66-2.56-13.05-3.77,2.26-3.28,4.53-6.57,6.79-9.85,8.06,.98,16.27,1.32,24.17,3.06,50.62,11.11,90.74,40.91,127.81,74.8,13.53,12.36,25.61,14.19,42.48,10.01,45.86-11.37,91.68-24.62,138.35-30.65,85.94-11.09,172.71-15.69,258.72-26.33,141.3-17.48,217.03-89.06,243.53-229.16,4.41-23.31,1.83-48.85-2.05-72.62-5.48-33.64-27.05-52.85-61.76-53.57-29.42-.61-61.24-1.18-88.03,8.85-70.31,26.32-138.52,58.26-207.41,88.33-28.83,12.59-56.5,28.22-85.99,38.86-100.53,36.28-203.87,28.02-306.57,13.51-53.45-7.55-105.58-24.24-158.94-32.83-81.24-13.07-162.52-9.32-242.74,9.75-49.14,11.68-95.52,29.35-132.27,66.08-19.38,19.37-29.64,40.84-28.28,70.15,2.43,52.44,2.6,105.22-.54,157.6-2.39,39.98-11.34,79.56-17.38,119.31-2.87-.38-5.75-.76-8.62-1.14-2.37-37.29-2.33-74.92-7.68-111.78-8.15-56.13-17.08-112.49-31.29-167.29-11.46-44.2-27.84-47.49-63.19-20.12-39.35,30.47-63.56,72.19-81.98,117.2-50.76,124.05-68.92,253.46-55.64,386.37,3.57,35.77,16.49,71.64,30.79,105.03,15.48,36.14,46.37,51.8,87.24,50.29,37.35-1.38,56.92-24.77,66.87-54.04,15.67-46.11,25.45-94.23,37.51-141.55,2.72-10.66,4.57-21.55,6.83-32.33,3.13,.37,6.25,.74,9.38,1.11,0,19.85,1.2,39.79-.24,59.53-3.32,45.41-8.42,90.7-11.66,136.11-.83,11.6-1.29,26.08,4.59,34.87,52.71,78.75,179.14,117.93,276.84,96.72,.28-.83,.84-1.68,.79-2.49-5.86-95.72,13.14-124.51,102.03-156.24,5.24-1.87,12.03-8.64,12.34-13.5,1.35-21.29,.58-42.72,.58-65.71-55.23,20.58-109.47,43.36-168.06,16.98-55.22-24.86-98.01-61.1-112.6-123.09,18.97,8.27,35.35,19.64,52.7,29.28,64.57,35.87,130.77,44.48,197.86,7.48,53.64-29.59,91.93-74.99,124.38-125.88,4.69-7.36,10.03-14.31,15.07-21.46,2.42,.94,4.83,1.87,7.25,2.81-1.11,18.29-2.21,36.58-3.7,61.18,18.5-9.92,32.62-17.48,47.28-25.34,4.27,5.42,9.26,11.74,14.91,18.9Zm176.59-119.92c15.86,27.6,32.2,52.51,45.01,79.13,20.47,42.55,33.31,87.53,19.32,134.73-6.46,21.77-1.04,31.94,19.73,38.56,108.38,34.51,215.48,73.69,325.27,102.81,52.98,14.05,111.26,15.61,166.44,12.01,72.16-4.7,135.06-34.3,163.69-108.02,25.33-65.23-10.01-115.79-79.78-119.4-33.17-1.71-66.53-3.71-99.27-8.96-159-25.51-311.13-75.71-460.65-133.68-35.08-13.6-65.68-11.65-99.75,2.82Zm21.04,364.03c-8.2,21.25-12.42,36.44-19.6,50.07-27.2,51.67-49.97,106.82-84.41,153.24-50.87,68.58-124.36,70.93-181.57,7.2-28.39-31.62-44.59-74.09-67.02-111.22-5.54-9.17-16.52-24.77-20.41-23.49-14.45,4.76-35.38,13.09-38.35,24.23-4.94,18.49-3.75,43.3,5.11,60.02,46.75,88.25,112.5,158.89,207.31,196.07,81.11,31.8,159.16,23.59,226.08-35.15,16.86-14.8,32.78-39.78,34.44-61.23,6.96-89.58-21.73-172.26-61.58-259.74Z"/><path d="M293.35,1252.24c-31.56-146.32-8.64-285.9,23.11-426.79-11.86,28.13-23.72,56.26-35.65,84.56-21.26-42.51,6.73-109.35,50.19-120.72,23.03-6.03,46.87,8.75,53.74,41.76,11.33,54.49,25.24,110.2,24,165.08-1.39,61.17-14.4,123.09-30.45,182.5-8.16,30.22-30.4,59.2-52.83,82.4-33.33,34.47-68.47,22.62-82.25-23.77-3.67-12.34-4.95-25.4-8.25-43.02,16.71,22.82,30.02,41.38,43.96,59.46,1.43,1.86,6.74,1.64,9.94,.95,3.12-.68,5.83-3.2,4.49-2.4Z"/></svg>