<?xml version="1.0" encoding="UTF-8"?><svg id="a" xmlns="http://www.w3.org/2000/svg" viewBox="0 0 2160 2160"><path d="M738.6,914.21c-54.77-6.27-109.82-10.68-164.25-19.14-174.77-27.14-295.44-179.49-283.74-356.22,5.26-79.48,55.18-137.09,127.46-144.24,23.3-2.31,47.55-1.63,70.68,2.03,97.72,15.49,184.54,59.57,269.51,107.32,68.42,38.45,142.11,56.41,219.43,52.12,89.78-4.98,179.31-11.13,266.89-38.36,64.62-20.1,133.39-16.59,200.93-8.64,103.07,12.13,200.22,37,270.35,122.04,.87,1.05,3.22,.89,4.88,1.27,54.05-27.78,95.35-16.57,136.3,36.8,121.84,158.82,164.7,340.05,149.8,536.68-4.19,55.3-18.41,109.4-51.01,155.77-63.42,90.23-118.71,96.99-189.1,58.9-.7-.38-1.73-.13,2.28,.08-34.85,27.81-64.54,56.99-99.18,78.02-76.27,46.29-161.57,55.03-248.75,47.57-17.32-1.48-26.61,2.95-36.66,16.85-51.38,71.1-111.33,132.97-192.09,171.51-115.59,55.15-236.33,40.99-326.37-38.86-41.89-37.15-62.84-82.97-59.45-139.72,5.03-84.03,25.5-164.18,58.2-241.47,3.5-8.28,6.83-16.64,11.9-29.04-10.35,2.58-15.32,3.52-20.11,5.06-72.51,23.32-144.94,46.88-217.49,70.06-90.23,28.82-181.91,45.39-276.89,30.05-118.95-19.21-197.59-94.96-210.65-202.33-10.27-84.49,51.8-161.84,132.32-169.46,66.1-6.25,132.8-12.48,197.38-26.99,87.53-19.66,173.29-47.21,259.81-71.38-.79-2.1-1.58-4.2-2.37-6.29Zm418.38,137.76c14.66,7.86,28.78,15.42,47.28,25.34-1.49-24.6-2.6-42.89-3.7-61.18,2.42-.94,4.83-1.87,7.25-2.81,5.04,7.14,10.37,14.09,15.07,21.46,32.45,50.9,70.74,96.3,124.38,125.88,67.09,37.01,133.3,28.39,197.86-7.48,17.35-9.64,33.74-21.01,52.7-29.28-14.59,61.99-57.39,98.22-112.6,123.09-58.59,26.38-112.83,3.6-168.06-16.98,0,22.99-.77,44.42,.58,65.71,.31,4.86,7.1,11.63,12.34,13.5,88.89,31.73,107.89,60.52,102.03,156.24-.05,.81,.51,1.66,.79,2.49,97.7,21.21,224.12-17.97,276.84-96.72,5.89-8.79,5.42-23.27,4.59-34.87-3.25-45.42-8.34-90.7-11.66-136.11-1.44-19.75-.24-39.68-.24-59.53,3.13-.37,6.25-.74,9.38-1.11,2.25,10.78,4.11,21.66,6.83,32.33,12.06,47.32,21.84,95.45,37.51,141.55,9.95,29.27,29.52,52.66,66.87,54.04,40.86,1.51,71.76-14.16,87.24-50.29,14.3-33.39,27.22-69.26,30.79-105.03,13.27-132.91-4.89-262.33-55.64-386.37-18.42-45.02-42.64-86.73-81.98-117.2-35.34-27.37-51.72-24.07-63.19,20.12-14.21,54.8-23.13,111.16-31.29,167.29-5.35,36.85-5.31,74.49-7.68,111.78-2.87,.38-5.75,.76-8.62,1.14-6.03-39.76-14.98-79.34-17.38-119.31-3.13-52.38-2.97-105.17-.54-157.6,1.36-29.32-8.9-50.78-28.28-70.15-36.75-36.73-83.14-54.4-132.27-66.08-80.22-19.07-161.51-22.82-242.74-9.75-53.36,8.59-105.48,25.27-158.94,32.83-102.7,14.51-206.04,22.77-306.57-13.51-29.49-10.65-57.16-26.27-85.99-38.86-68.88-30.08-137.1-62.01-207.41-88.33-26.79-10.03-58.6-9.46-88.03-8.85-34.72,.72-56.29,19.94-61.76,53.57-3.87,23.77-6.45,49.3-2.05,72.62,26.5,140.11,102.23,211.69,243.53,229.16,86.01,10.64,172.78,15.24,258.72,26.33,46.67,6.02,92.49,19.27,138.35,30.65,16.87,4.18,28.95,2.36,42.48-10.01,37.07-33.88,77.2-63.68,127.81-74.8,7.9-1.73,16.11-2.07,24.17-3.06,2.26,3.28,4.53,6.57,6.79,9.85-4.38,1.21-9.47,1.37-13.05,3.77-92.5,62.04-148.5,154.73-205.02,246.59-22.18,36.04-26.05,75.86-11.53,116.47,27.67,77.43,54.29,155.27,83.87,231.98,8.96,23.23,24.19,44.9,40.06,64.42,31.22,38.4,60.96,38.16,94.02,.87,39.08-44.08,52.05-98.27,57.19-155.06,9.03-99.63-26.98-179.88-106-241.82,5.65-7.16,10.64-13.49,14.91-18.9Zm-291.25-103.84c-149.52,57.97-301.65,108.17-460.65,133.68-32.73,5.25-66.1,7.25-99.27,8.96-69.77,3.61-105.11,54.17-79.78,119.4,28.63,73.72,91.53,103.32,163.69,108.02,55.18,3.6,113.46,2.04,166.44-12.01,109.78-29.12,216.89-68.3,325.27-102.81,20.77-6.61,26.19-16.78,19.73-38.56-14-47.21-1.16-92.19,19.32-134.73,12.81-26.62,29.15-51.53,45.01-79.13-34.07-14.47-64.67-16.42-99.75-2.82Zm17.13,626.59c1.67,21.44,17.58,46.42,34.44,61.23,66.92,58.74,144.97,66.95,226.08,35.15,94.82-37.17,160.56-107.82,207.31-196.07,8.86-16.72,10.05-41.52,5.11-60.02-2.97-11.14-23.9-19.47-38.35-24.23-3.89-1.28-14.87,14.32-20.41,23.49-22.43,37.13-38.64,79.6-67.02,111.22-57.21,63.74-130.7,61.39-181.57-7.2-34.43-46.42-57.21-101.58-84.41-153.24-7.18-13.63-11.4-28.82-19.6-50.07-39.85,87.48-68.54,170.16-61.58,259.74Z"/><path d="M1866.65,1252.74c31.56-146.32,8.64-285.9-23.11-426.79,11.86,28.13,23.72,56.26,35.65,84.56,21.26-42.51-6.73-109.35-50.19-120.72-23.03-6.03-46.87,8.75-53.74,41.76-11.33,54.49-25.24,110.2-24,165.08,1.39,61.17,14.4,123.09,30.45,182.5,8.16,30.22,30.4,59.2,52.83,82.4,33.33,34.47,68.47,22.62,82.25-23.77,3.67-12.34,4.95-25.4,8.25-43.02-16.71,22.82-30.02,41.38-43.96,59.46-1.43,1.86-6.74,1.64-9.94,.95-3.12-.68-5.83-3.2-4.49-2.4Z"/></svg>