<?xml version="1.0" encoding="UTF-8"?><svg id="a" xmlns="http://www.w3.org/2000/svg" viewBox="0 0 1080 1080"><path d="M625.03,568.65c46.85,14.72,93.52,30.06,140.61,43.96,31.78,9.38,64.64,15.35,92.06,35.85,46.39,34.68,47.18,91.82,1.68,127.26-25.45,19.82-54.99,28.28-86.5,30.82-51.81,4.18-101.64-5.82-150.17-22.93-22.13-7.8-43.62-17.44-65.4-26.25-.97,1.02-1.95,2.05-2.92,3.07,15.19,26.92,30.98,53.53,45.37,80.87,9.84,18.7,20.67,37.67,25.87,57.85,9.82,38.1-11.49,67.58-50.19,74.08-7.92,1.33-16.08,1.85-24.12,1.77-52.53-.57-92.6-23.81-122.36-66.7-24.75-35.67-42.17-74.79-56.17-115.55-3.39-9.88-8.63-14.29-19-17.3-80.92-23.44-143.1-66.75-160.69-155.86-.7-3.56-3.65-8.22-6.74-9.51-22.44-9.37-29.57-28.13-31.45-49.98-7.18-83.13,31.41-153.66,105.99-191.67,9.9-5.04,22.71-4.18,34.03-6.69,5.16-1.14,12.36-2.44,14.51-6.09,8.32-14.16,16.74-28.72,21.89-44.2,9.92-29.8,16.73-59.74,10.27-92.37-4.18-21.13-3.1-44.26,.38-65.72,5.68-35.04,32.09-53.68,63.78-47.05,53.68,11.24,110.51,54.85,112.8,127.44,1.01,31.99-5.2,62.64-17.55,91.96-3.81,9.06-2.34,14.96,5.26,20.77,22.58,17.26,47.96,24.64,75.6,18.41,68.02-15.32,135.94-31.16,203.58-48.09,26.54-6.64,52.78-8.49,79.56-4.54,58.94,8.68,77.06,47.96,45.81,98.83-21.25,34.6-51.58,59.74-85.69,80.43-61.54,37.3-127.18,63.99-199.04,73.66l-1.05,3.46Zm-159.88-172.5c-.94-.27-1.87-.55-2.81-.82,.3-2.84,.18-5.79,.95-8.49,11.24-39.7,21.17-79.5,24.32-121,5-65.84-43.35-105.67-87.01-117.79-14.57-4.05-20.78-.19-21.63,14.57-1.02,17.7-2.4,36.2,1.52,53.17,7.47,32.38-.87,62.35-7.93,92.95-8.24,35.73-26.02,66.07-50.4,93.16-10.19,11.32-18.27,24.52-27.8,36.47-31.97,40.08-2.73,97.46,33.51,111.85,29.98,11.91,61.02,14.58,92.65,14.01,13.91-.25,27.8-1.42,44.29-2.31-2.89,2.61-3.76,3.93-4.97,4.42-44.74,18-90.4,26.94-138.31,14.11-28.02-7.51-49.44-23.62-65.13-48.02-2.75-4.27-9.19-10-12.48-9.19-5,1.23-9.17,7.25-12.84,11.91-1.96,2.49-2.79,6.33-3.02,9.64-3.92,57.07,4.65,109.94,52.72,148.4,31.5,25.21,62.27,51.56,101.73,64.56,22.23,7.32,44.54,10.73,67.78,7.54,2.36-.32,4.76-.29,7.15-.42,.29,1.22,.58,2.44,.87,3.66-15.47,4.16-30.94,8.31-47.68,12.81,18.92,49.46,38.04,98.98,81.01,133.21,24.51,19.52,54.51,22.44,85,16.94,11.08-2,15.15-10.17,11.69-20.02-4.76-13.54-10.78-26.74-17.3-39.55-29.15-57.2-58.69-114.2-88-171.33-1.65-3.22-2.47-6.86-4.16-11.68,25.83-.99,48.44,.7,70.63,14.6,62.42,39.09,130.87,60.97,204.85,62.64,29.65,.67,58.77-3.93,83.27-23.1,21.38-16.72,23.19-38.77,1.54-55.23-14.82-11.27-32.95-19.35-50.78-25.31-56.42-18.87-113.48-35.78-170.05-54.22-9.43-3.07-18.54-8.87-26.21-15.29-24.27-20.33-18.61-53.76,10.77-65.65,5.82-2.36,12.26-3.72,18.53-4.36,82.87-8.5,155.69-41.6,220.64-92.24,15.39-12,27.55-28.78,39.12-44.85,11.37-15.79,6.64-26.82-11.96-30.74-23.9-5.03-47.84-5.53-72.01,.51-65.61,16.4-131.32,32.48-197.2,47.76-32.61,7.57-65.16,7.13-95.76-9.13-8.58-4.56-16.71-9.95-26.46-15.82-4.43,6.2-8.53,11.93-12.62,17.65Zm-261.65,104.01c9.88-5.4,21.19-11.34,32.18-17.81,2.42-1.42,5.08-4.63,5.3-7.23,2.06-23.54,11.81-43.99,23.84-64.1-31.28,23.28-49.27,55.67-61.32,89.14Z"/></svg>