<?xml version="1.0" encoding="UTF-8"?><svg id="a" xmlns="http://www.w3.org/2000/svg" viewBox="0 0 1080 1080"><path d="M453.92,565.18c-71.86-9.67-137.5-36.36-199.04-73.66-34.12-20.68-64.44-45.83-85.69-80.43-31.25-50.88-13.13-90.16,45.81-98.83,26.78-3.94,53.02-2.1,79.56,4.54,67.64,16.93,135.56,32.77,203.58,48.09,27.64,6.23,53.02-1.15,75.6-18.41,7.6-5.81,9.07-11.71,5.26-20.77-12.35-29.32-18.56-59.97-17.55-91.96,2.29-72.6,59.13-116.2,112.8-127.44,31.69-6.64,58.1,12,63.78,47.05,3.48,21.46,4.56,44.59,.38,65.72-6.46,32.64,.35,62.57,10.27,92.37,5.15,15.48,13.57,30.04,21.89,44.2,2.15,3.65,9.35,4.95,14.51,6.09,11.32,2.51,24.14,1.65,34.03,6.69,74.58,38.01,113.17,108.55,105.99,191.67-1.89,21.85-9.02,40.61-31.45,49.98-3.09,1.29-6.04,5.96-6.74,9.51-17.59,89.11-79.78,132.42-160.69,155.86-10.37,3-15.6,7.42-19,17.3-14.01,40.76-31.42,79.87-56.17,115.55-29.76,42.89-69.83,66.13-122.36,66.7-8.04,.09-16.2-.44-24.12-1.77-38.7-6.5-60.01-35.98-50.19-74.08,5.2-20.18,16.03-39.15,25.87-57.85,14.39-27.34,30.18-53.95,45.37-80.87-.97-1.02-1.95-2.05-2.92-3.07-21.78,8.81-43.27,18.45-65.4,26.25-48.53,17.1-98.36,27.1-150.17,22.93-31.51-2.54-61.05-10.99-86.5-30.82-45.5-35.44-44.71-92.58,1.68-127.26,27.42-20.5,60.28-26.48,92.06-35.85,47.1-13.89,93.76-29.23,140.61-43.96l-1.05-3.46Zm148.31-186.69c-9.75,5.86-17.88,11.26-26.46,15.82-30.6,16.27-63.15,16.7-95.76,9.13-65.88-15.29-131.58-31.36-197.2-47.76-24.17-6.04-48.11-5.54-72.01-.51-18.6,3.92-23.33,14.95-11.96,30.74,11.57,16.07,23.73,32.85,39.12,44.85,64.95,50.64,137.77,83.74,220.64,92.24,6.27,.64,12.71,2,18.53,4.36,29.38,11.89,35.04,45.32,10.77,65.65-7.67,6.43-16.78,12.22-26.21,15.29-56.57,18.43-113.63,35.35-170.05,54.22-17.83,5.97-35.96,14.04-50.78,25.31-21.65,16.47-19.84,38.51,1.54,55.23,24.5,19.16,53.61,23.77,83.27,23.1,73.98-1.68,142.43-23.56,204.85-62.64,22.19-13.9,44.8-15.59,70.63-14.6-1.69,4.82-2.51,8.46-4.16,11.68-29.31,57.12-58.85,114.12-88,171.33-6.53,12.81-12.54,26.01-17.3,39.55-3.47,9.86,.61,18.03,11.69,20.02,30.49,5.5,60.49,2.58,85-16.94,42.97-34.23,62.09-83.76,81.01-133.21-16.74-4.5-32.21-8.65-47.68-12.81,.29-1.22,.58-2.44,.87-3.66,2.38,.13,4.79,.09,7.15,.42,23.24,3.19,45.55-.22,67.78-7.54,39.46-13,70.23-39.35,101.73-64.56,48.06-38.46,56.64-91.33,52.72-148.4-.23-3.31-1.06-7.16-3.02-9.64-3.67-4.66-7.84-10.68-12.84-11.91-3.29-.81-9.74,4.92-12.48,9.19-15.69,24.39-37.11,40.51-65.13,48.02-47.91,12.84-93.57,3.89-138.31-14.11-1.21-.49-2.09-1.81-4.97-4.42,16.49,.89,30.38,2.06,44.29,2.31,31.63,.57,62.67-2.1,92.65-14.01,36.24-14.39,65.48-71.78,33.51-111.85-9.53-11.95-17.61-25.15-27.8-36.47-24.38-27.1-42.15-57.43-50.4-93.16-7.06-30.59-15.4-60.57-7.93-92.95,3.92-16.97,2.54-35.48,1.52-53.17-.85-14.76-7.05-18.61-21.63-14.57-43.66,12.12-92.02,51.95-87.01,117.79,3.15,41.5,13.08,81.3,24.32,121,.76,2.7,.65,5.65,.95,8.49-.94,.27-1.87,.55-2.81,.82-4.09-5.73-8.19-11.45-12.62-17.65Zm212.94,32.53c12.02,20.11,21.78,40.56,23.84,64.1,.23,2.59,2.89,5.8,5.3,7.23,11,6.47,22.31,12.4,32.18,17.81-12.06-33.47-30.05-65.85-61.32-89.14Z"/></svg>