<?xml version="1.0" encoding="UTF-8"?><svg id="a" xmlns="http://www.w3.org/2000/svg" viewBox="0 0 1080 1080"><path d="M146.29,669.59c6.48-26.51,1.9-50.81-7.49-75.48-17.07-44.89-26.18-91.6-22.6-140.23,2.04-27.72,12.24-52.45,24.55-76.73,17.1-33.73,34.29-67.41,50.85-101.4,13.76-28.25,34.5-50.18,59.71-68.13,43.64-31.06,92.42-50.73,144.88-59.51,18.23-3.05,37.76,2.1,56.72,2.83,8.28,.32,17.6,1.18,24.77-2,55.2-24.5,111.67-37.23,172.28-24.91,86.86,17.66,157.35,101,158.62,189.3,.18,12.22-1.51,24.57-3.46,36.68-1.11,6.94-.7,10.93,6.95,13.25,25.72,7.82,45.96,24.09,64.22,43.17,41.61,43.47,75.61,92.18,84.57,152.65,13,87.83-7.95,168.63-64.88,237.43-36.17,43.71-82.56,49.82-130.94,21.36-9.26-5.45-14.44-3.69-21.74,2.31-53.45,43.92-110.11,82.68-174.09,110.18-109.3,46.99-214.35,39.03-316.79-20.78-51.58-30.11-78.49-76.41-90.28-132.37-7.46-35.41-10.71-71.71-15.85-107.62ZM471.69,218.58c-19.89-19.22-42.61-26.63-68.35-21.74-42.92,8.16-83.41,23.25-120.09,47.34-22.06,14.49-40.87,32.14-52.61,56.6-15.73,32.76-32.82,64.89-48.17,97.82-8.02,17.21-16.58,35.07-19.63,53.51-7.25,43.93,3.79,86.32,19.64,126.85,10.32,26.39,14.98,52.77,13.23,80.69-2.33,37.17,1.79,73.74,11.25,109.67,8.65,32.85,20.48,64.5,50.03,84.55,76.78,52.09,159.67,72.17,251,45.75,72.8-21.06,134.83-61.41,193.8-107.35,17.1-13.32,16.54-13.08,4.98-31.61-9.21-14.76-17-30.4-25.43-45.65,1.27-.7,2.55-1.41,3.82-2.11,3.95,4.3,7.46,9.14,11.92,12.82,23.43,19.3,45.22,41.55,71.14,56.67,40.78,23.78,74.75,12.63,101.94-26.02,21.64-30.77,35.07-64.8,43.64-100.97,20.35-85.95,1.02-160.49-66.98-218.91-53.6-46.04-99.53-35.39-130,27.94-.85,1.77-1.67,3.57-2.48,5.36-20.6,45.45-37.54,91.98-43.11,142.06-.45,4.04-5.33,7.59-8.16,11.37-2.81-3.87-5.84-7.6-8.31-11.68-.92-1.52-.59-3.84-.71-5.81-1.21-20.39-2.4-40.79-3.6-61.25-14.27-.84-27.54-1.2-40.73-2.45-58.82-5.6-110.85-26.33-151.68-70.42-5.51-5.95-18.13-11.44-10.12-22.77,8.74-12.37,16.8,.08,23.75,3.58,46.71,23.52,93.86,45.63,145.96,54.63,33.69,5.82,36.57,3.56,45.7-28.32,13.83-48.33,36.04-90.56,84.74-113.08,4.15-1.92,7.95-7.49,9.31-12.12,7.81-26.61,8.05-53.31-1.09-79.82-24.39-70.76-102.01-115.11-181.42-102.55-20.97,3.32-41.45,9.72-63.59,15.05,6.76,12.8,13.27,17.82,24.9,17.96,24.41,.29,48.33,4.91,68.46,19.59,7.17,5.23,16.94,15.75,15.68,21.8-2.55,12.21-15.46,5.2-24.01,4.99-62.86-1.54-124.09,3.53-177.75,41.42-2.27,1.6-4.99,2.57-7.97,4.07,1.7-26.57,12.71-40.49,61.1-77.45Z"/><path d="M860.05,544.32c-11.04-26.16-13.63-57.05-40.77-74.07-4.65-2.91-11.66-2.06-20.76-3.42,53.74,58.87,45.73,124.55,32.95,190.86-2.23,11.56-5.3,23.06-9.15,34.18-3.48,10.05-2.54,16.78,8.47,20.73,3.37,1.21,5.8,5.02,8.67,7.64-.83,1.47-1.65,2.95-2.48,4.42-8.86-3.25-18.21-5.58-26.5-9.93-30.53-16.02-46.38-43.54-54.69-75.42-11.73-44.99-12.54-90.49-1-135.78,2.28-8.97,5.74-17.85,10.03-26.06,16.48-31.56,52.3-35.07,75.15-7.2,17.47,21.31,20.71,47.11,20.09,74.06Z"/><path d="M639.85,673.83c-11.94,61.42-119.46,94.2-189.62,56.56,73,7.4,131.71-21.52,189.62-56.56Z"/><path d="M470.66,632.49c53.01,23.31,106.17,15.77,161.53-1.32-31.71,42.71-108.66,42.68-161.53,1.32Z"/></svg>