<?xml version="1.0" encoding="UTF-8"?><svg id="a" xmlns="http://www.w3.org/2000/svg" viewBox="0 0 1080 1080"><path d="M917.86,777.21c-11.79,55.97-38.7,102.26-90.28,132.37-102.44,59.8-207.49,67.77-316.79,20.78-63.97-27.5-120.64-66.26-174.09-110.18-7.3-6-12.49-7.75-21.74-2.31-48.38,28.46-94.77,22.35-130.94-21.36-56.93-68.8-77.88-149.6-64.88-237.43,8.95-60.47,42.96-109.18,84.57-152.65,18.26-19.08,38.49-35.36,64.22-43.17,7.64-2.32,8.06-6.31,6.95-13.25-1.94-12.11-3.64-24.46-3.46-36.68,1.27-88.3,71.76-171.64,158.62-189.3,60.6-12.32,117.08,.41,172.28,24.91,7.17,3.18,16.49,2.32,24.77,2,18.96-.73,38.49-5.88,56.72-2.83,52.47,8.78,101.24,28.45,144.88,59.51,25.22,17.95,45.95,39.88,59.71,68.13,16.56,33.99,33.75,67.68,50.85,101.4,12.31,24.28,22.5,49,24.55,76.73,3.58,48.63-5.53,95.35-22.6,140.23-9.38,24.67-13.97,48.97-7.49,75.48-5.14,35.9-8.39,72.2-15.85,107.62Zm-248.45-481.18c-2.99-1.5-5.7-2.47-7.97-4.07-53.66-37.89-114.89-42.96-177.75-41.42-8.55,.21-21.46,7.22-24.01-4.99-1.26-6.05,8.51-16.57,15.68-21.8,20.13-14.68,44.05-19.3,68.46-19.59,11.63-.14,18.14-5.16,24.9-17.96-22.14-5.33-42.62-11.73-63.59-15.05-79.41-12.56-157.03,31.78-181.42,102.55-9.14,26.51-8.9,53.21-1.09,79.82,1.36,4.64,5.15,10.2,9.31,12.12,48.7,22.52,70.91,64.75,84.74,113.08,9.13,31.88,12.01,34.15,45.7,28.32,52.1-9,99.24-31.11,145.96-54.63,6.94-3.5,15-15.95,23.75-3.58,8.01,11.32-4.61,16.81-10.12,22.77-40.83,44.09-92.86,64.82-151.68,70.42-13.19,1.26-26.46,1.62-40.73,2.45-1.2,20.46-2.39,40.86-3.6,61.25-.12,1.96,.21,4.29-.71,5.81-2.47,4.08-5.5,7.81-8.31,11.68-2.82-3.78-7.71-7.33-8.16-11.37-5.57-50.07-22.51-96.6-43.11-142.06-.81-1.79-1.63-3.59-2.48-5.36-30.48-63.33-76.41-73.98-130-27.94-68,58.42-87.34,132.95-66.98,218.91,8.57,36.17,22,70.21,43.64,100.97,27.19,38.66,61.16,49.8,101.94,26.02,25.92-15.11,47.7-37.37,71.14-56.67,4.46-3.68,7.97-8.51,11.92-12.82,1.27,.7,2.55,1.41,3.82,2.11-8.42,15.25-16.22,30.89-25.43,45.65-11.56,18.53-12.11,18.29,4.98,31.61,58.97,45.94,121.01,86.28,193.8,107.35,91.32,26.43,174.22,6.34,251-45.75,29.56-20.05,41.38-51.7,50.03-84.55,9.46-35.93,13.58-72.5,11.25-109.67-1.75-27.92,2.91-54.3,13.23-80.69,15.85-40.53,26.89-82.92,19.64-126.85-3.04-18.44-11.61-36.3-19.63-53.51-15.35-32.94-32.44-65.06-48.17-97.82-11.75-24.46-30.56-42.11-52.61-56.6-36.68-24.1-77.17-39.18-120.09-47.34-25.74-4.89-48.46,2.52-68.35,21.74,48.39,36.97,59.4,50.88,61.1,77.45Z"/><path d="M219.95,544.32c11.04-26.16,13.63-57.05,40.77-74.07,4.65-2.91,11.66-2.06,20.76-3.42-53.74,58.87-45.73,124.55-32.95,190.86,2.23,11.56,5.3,23.06,9.15,34.18,3.48,10.05,2.54,16.78-8.47,20.73-3.37,1.21-5.8,5.02-8.67,7.64,.83,1.47,1.65,2.95,2.48,4.42,8.86-3.25,18.21-5.58,26.5-9.93,30.53-16.02,46.38-43.54,54.69-75.42,11.73-44.99,12.54-90.49,1-135.78-2.28-8.97-5.74-17.85-10.03-26.06-16.48-31.56-52.3-35.07-75.15-7.2-17.47,21.31-20.71,47.11-20.09,74.06Z"/><path d="M440.15,673.83c11.94,61.42,119.46,94.2,189.62,56.56-73,7.4-131.71-21.52-189.62-56.56Z"/><path d="M609.34,632.49c-53.01,23.31-106.17,15.77-161.53-1.32,31.71,42.71,108.66,42.68,161.53,1.32Z"/></svg>