<?xml version="1.0" encoding="UTF-8"?><svg id="a" xmlns="http://www.w3.org/2000/svg" viewBox="0 0 1080 1080"><path d="M700.95,464.04c41.07,11.47,81.79,24.55,123.34,33.89,30.66,6.89,62.32,9.84,93.71,12.81,38.23,3.62,67.69,40.34,62.82,80.45-6.2,50.97-43.53,86.93-100,96.05-45.1,7.28-88.62-.58-131.45-14.27-34.44-11-68.83-22.19-103.25-33.26-2.27-.73-4.63-1.18-9.55-2.4,2.41,5.88,3.98,9.85,5.65,13.79,15.52,36.69,25.24,74.74,27.63,114.64,1.61,26.94-8.34,48.69-28.22,66.33-42.75,37.91-100.07,44.63-154.94,18.45-38.34-18.29-66.8-47.67-91.19-81.42-4.77-6.6-9.18-8.7-17.4-8-41.39,3.54-81.88-.61-118.09-22.58-16.45-9.98-30.54-23.84-47.09-37.04,1.9-.1,1.41-.21,1.08-.04-33.42,18.08-59.66,14.88-89.77-27.96-15.47-22.02-22.22-47.7-24.21-73.95-7.08-93.34,13.28-179.39,71.12-254.78,19.44-25.34,39.05-30.66,64.71-17.47,.79-.18,1.9-.1,2.32-.6,33.29-40.37,79.42-52.18,128.35-57.94,32.06-3.77,64.71-5.44,95.39,4.1,41.57,12.93,84.08,15.85,126.7,18.21,36.71,2.04,71.69-6.49,104.17-24.75,40.34-22.67,81.55-43.6,127.95-50.95,10.98-1.74,22.49-2.06,33.55-.97,34.31,3.39,58.01,30.74,60.51,68.48,5.55,83.9-51.74,156.23-134.71,169.11-25.84,4.01-51.98,6.11-77.98,9.08-.38,1-.75,1.99-1.13,2.99Zm-190.42,71.39c-37.51,29.41-54.61,67.5-50.32,114.8,2.44,26.96,8.6,52.69,27.15,73.62,15.7,17.7,29.82,17.82,44.64-.41,7.54-9.27,14.77-19.55,19.02-30.58,14.04-36.41,26.68-73.37,39.82-110.13,6.89-19.28,5.05-38.18-5.48-55.29-26.83-43.61-53.42-87.62-97.33-117.07-1.7-1.14-4.11-1.22-6.19-1.79,1.07-1.56,2.15-3.12,3.22-4.68,3.83,.47,7.72,.63,11.47,1.45,24.03,5.28,43.08,19.42,60.68,35.51,6.42,5.87,12.16,6.74,20.17,4.75,21.77-5.4,43.52-11.69,65.68-14.55,40.8-5.26,81.99-7.45,122.83-12.5,67.08-8.3,103.03-42.28,115.61-108.79,2.09-11.07,.87-23.19-.97-34.47-2.6-15.97-12.84-25.09-29.32-25.43-13.97-.29-29.07-.56-41.79,4.2-33.38,12.5-65.76,27.66-98.46,41.94-13.69,5.98-26.82,13.4-40.82,18.45-47.73,17.23-96.78,13.3-145.54,6.42-25.38-3.59-50.12-11.51-75.45-15.58-38.57-6.21-77.15-4.42-115.24,4.63-23.33,5.54-45.35,13.94-62.8,31.37-9.2,9.2-14.07,19.39-13.42,33.31,1.15,24.9,1.23,49.95-.26,74.82-1.14,18.98-5.38,37.77-8.25,56.64-1.36-.18-2.73-.36-4.09-.54-1.13-17.7-1.11-35.57-3.65-53.06-3.87-26.65-8.11-53.4-14.85-79.42-5.44-20.98-13.22-22.55-30-9.55-18.68,14.47-30.18,34.27-38.92,55.64-24.1,58.89-32.72,120.33-26.42,183.43,1.7,16.98,7.83,34.01,14.62,49.86,7.35,17.16,22.02,24.59,41.41,23.88,17.73-.65,27.02-11.76,31.74-25.66,7.44-21.89,12.08-44.73,17.81-67.2,1.29-5.06,2.17-10.23,3.24-15.35l4.45,.53c0,9.42,.57,18.89-.11,28.26-1.58,21.56-4,43.06-5.54,64.62-.39,5.51-.61,12.38,2.18,16.55,25.03,37.38,85.04,55.99,131.43,45.92,.13-.39,.4-.8,.38-1.18-2.78-45.44,6.24-59.11,48.44-74.17,2.49-.89,5.71-4.1,5.86-6.41,.64-10.11,.28-20.28,.28-31.2-26.22,9.77-51.97,20.59-79.78,8.06-26.21-11.8-46.53-29.01-53.46-58.43,9,3.93,16.78,9.32,25.02,13.9,30.65,17.03,62.08,21.12,93.93,3.55,25.47-14.05,43.64-35.6,59.05-59.76,2.23-3.49,4.76-6.8,7.15-10.19,1.15,.44,2.29,.89,3.44,1.33-.53,8.68-1.05,17.36-1.76,29.04,8.78-4.71,15.49-8.3,22.44-12.03,2.03,2.57,4.4,5.58,7.08,8.97Zm83.84-56.93c7.53,13.1,15.29,24.93,21.37,37.57,9.72,20.2,15.82,41.55,9.17,63.96-3.07,10.34-.49,15.16,9.37,18.3,51.45,16.38,102.3,34.98,154.42,48.81,25.15,6.67,52.82,7.41,79.01,5.7,34.26-2.23,64.12-16.28,77.71-51.28,12.02-30.97-4.75-54.97-37.87-56.68-15.75-.81-31.59-1.76-47.13-4.25-75.48-12.11-147.71-35.94-218.69-63.46-16.65-6.46-31.18-5.53-47.36,1.34Zm9.99,172.82c-3.89,10.09-5.9,17.3-9.3,23.77-12.91,24.53-23.73,50.71-40.07,72.75-24.15,32.56-59.04,33.67-86.2,3.42-13.48-15.01-21.17-35.17-31.82-52.8-2.63-4.35-7.84-11.76-9.69-11.15-6.86,2.26-16.8,6.22-18.21,11.5-2.34,8.78-1.78,20.56,2.42,28.49,22.2,41.9,53.41,75.43,98.42,93.08,38.51,15.1,75.56,11.2,107.33-16.69,8.01-7.03,15.56-18.89,16.35-29.07,3.3-42.53-10.32-81.78-29.24-123.31Z"/><path d="M166.54,621.77c-14.98-69.46-4.1-135.73,10.97-202.62-5.63,13.36-11.26,26.71-16.93,40.14-10.09-20.18,3.19-51.91,23.83-57.31,10.94-2.86,22.25,4.15,25.51,19.83,5.38,25.87,11.98,52.32,11.39,78.37-.66,29.04-6.84,58.44-14.46,86.64-3.87,14.35-14.43,28.11-25.08,39.12-15.82,16.36-32.51,10.74-39.05-11.29-1.74-5.86-2.35-12.06-3.92-20.42,7.93,10.83,14.25,19.64,20.87,28.23,.68,.88,3.2,.78,4.72,.45,1.48-.32,2.77-1.52,2.13-1.14Z"/></svg>