<?xml version="1.0" encoding="UTF-8"?><svg id="a" xmlns="http://www.w3.org/2000/svg" viewBox="0 0 1080 1080"><path d="M377.92,461.05c-26-2.97-52.14-5.07-77.98-9.08-82.97-12.88-140.26-85.21-134.71-169.11,2.5-37.73,26.2-65.08,60.51-68.48,11.06-1.09,22.57-.77,33.55,.97,46.39,7.35,87.61,28.28,127.95,50.95,32.48,18.25,67.47,26.78,104.17,24.75,42.62-2.36,85.13-5.28,126.7-18.21,30.68-9.54,63.33-7.87,95.39-4.1,48.93,5.76,95.05,17.57,128.35,57.94,.41,.5,1.53,.42,2.32,.6,25.66-13.19,45.27-7.86,64.71,17.47,57.84,75.4,78.19,161.44,71.12,254.78-1.99,26.25-8.74,51.94-24.21,73.95-30.11,42.84-56.35,46.05-89.77,27.96-.33-.18-.82-.06,1.08,.04-16.54,13.2-30.64,27.06-47.09,37.04-36.21,21.98-76.71,26.12-118.09,22.58-8.22-.7-12.63,1.4-17.4,8-24.39,33.75-52.85,63.13-91.19,81.42-54.87,26.18-112.19,19.46-154.94-18.45-19.89-17.64-29.83-39.39-28.22-66.33,2.39-39.89,12.11-77.95,27.63-114.64,1.66-3.93,3.24-7.9,5.65-13.79-4.91,1.22-7.27,1.67-9.55,2.4-34.42,11.07-68.81,22.26-103.25,33.26-42.84,13.68-86.36,21.55-131.45,14.27-56.47-9.12-93.81-45.08-100-96.05-4.88-40.11,24.59-76.83,62.82-80.45,31.38-2.97,63.05-5.93,93.71-12.81,41.56-9.33,82.27-22.41,123.34-33.89-.37-1-.75-1.99-1.13-2.99Zm198.62,65.4c6.96,3.73,13.66,7.32,22.44,12.03-.71-11.68-1.23-20.36-1.76-29.04,1.15-.44,2.29-.89,3.44-1.33,2.39,3.39,4.92,6.69,7.15,10.19,15.4,24.16,33.58,45.72,59.05,59.76,31.85,17.57,63.28,13.48,93.93-3.55,8.24-4.58,16.02-9.97,25.02-13.9-6.93,29.43-27.24,46.63-53.46,58.43-27.82,12.53-53.56,1.71-79.78-8.06,0,10.91-.37,21.09,.28,31.2,.15,2.31,3.37,5.52,5.86,6.41,42.2,15.07,51.22,28.73,48.44,74.17-.02,.39,.24,.79,.38,1.18,46.38,10.07,106.4-8.53,131.43-45.92,2.79-4.17,2.57-11.05,2.18-16.55-1.54-21.56-3.96-43.06-5.54-64.62-.68-9.37-.11-18.84-.11-28.26l4.45-.53c1.07,5.12,1.95,10.29,3.24,15.35,5.73,22.47,10.37,45.31,17.81,67.2,4.72,13.89,14.01,25,31.74,25.66,19.4,.72,34.07-6.72,41.41-23.88,6.79-15.85,12.92-32.88,14.62-49.86,6.3-63.1-2.32-124.54-26.42-183.43-8.74-21.37-20.24-41.18-38.92-55.64-16.78-12.99-24.56-11.43-30,9.55-6.75,26.02-10.98,52.77-14.85,79.42-2.54,17.5-2.52,35.36-3.65,53.06-1.36,.18-2.73,.36-4.09,.54-2.86-18.87-7.11-37.67-8.25-56.64-1.49-24.87-1.41-49.93-.26-74.82,.65-13.92-4.22-24.11-13.42-33.31-17.45-17.44-39.47-25.83-62.8-31.37-38.09-9.05-76.67-10.84-115.24-4.63-25.33,4.08-50.08,12-75.45,15.58-48.76,6.89-97.82,10.81-145.54-6.42-14-5.05-27.14-12.47-40.82-18.45-32.7-14.28-65.09-29.44-98.46-41.94-12.72-4.76-27.82-4.49-41.79-4.2-16.48,.34-26.72,9.47-29.32,25.43-1.84,11.29-3.06,23.41-.97,34.47,12.58,66.52,48.53,100.5,115.61,108.79,40.83,5.05,82.03,7.24,122.83,12.5,22.16,2.86,43.91,9.15,65.68,14.55,8.01,1.99,13.75,1.12,20.17-4.75,17.6-16.09,36.65-30.23,60.68-35.51,3.75-.82,7.65-.98,11.47-1.45,1.07,1.56,2.15,3.12,3.22,4.68-2.08,.57-4.49,.65-6.19,1.79-43.91,29.45-70.5,73.46-97.33,117.07-10.53,17.11-12.37,36.01-5.48,55.29,13.14,36.76,25.78,73.72,39.82,110.13,4.25,11.03,11.48,21.31,19.02,30.58,14.82,18.23,28.94,18.12,44.64,.41,18.56-20.93,24.71-46.65,27.15-73.62,4.29-47.3-12.81-85.4-50.32-114.8,2.68-3.4,5.05-6.4,7.08-8.97Zm-138.27-49.3c-70.99,27.52-143.21,51.35-218.69,63.46-15.54,2.49-31.38,3.44-47.13,4.25-33.12,1.71-49.9,25.72-37.87,56.68,13.59,35,43.45,49.05,77.71,51.28,26.19,1.71,53.86,.97,79.01-5.7,52.12-13.82,102.97-32.42,154.42-48.81,9.86-3.14,12.43-7.97,9.37-18.3-6.65-22.41-.55-43.76,9.17-63.96,6.08-12.64,13.84-24.46,21.37-37.57-16.18-6.87-30.7-7.8-47.36-1.34Zm8.13,297.47c.79,10.18,8.35,22.04,16.35,29.07,31.77,27.89,68.82,31.78,107.33,16.69,45.01-17.65,76.23-51.19,98.42-93.08,4.2-7.94,4.77-19.71,2.42-28.49-1.41-5.29-11.35-9.24-18.21-11.5-1.85-.61-7.06,6.8-9.69,11.15-10.65,17.63-18.34,37.79-31.82,52.8-27.16,30.26-62.05,29.14-86.2-3.42-16.35-22.04-27.16-48.22-40.07-72.75-3.41-6.47-5.41-13.68-9.3-23.77-18.92,41.53-32.54,80.78-29.24,123.31Z"/><path d="M913.46,621.77c14.98-69.46,4.1-135.73-10.97-202.62,5.63,13.36,11.26,26.71,16.93,40.14,10.09-20.18-3.19-51.91-23.83-57.31-10.94-2.86-22.25,4.15-25.51,19.83-5.38,25.87-11.98,52.32-11.39,78.37,.66,29.04,6.84,58.44,14.46,86.64,3.87,14.35,14.43,28.11,25.08,39.12,15.82,16.36,32.51,10.74,39.05-11.29,1.74-5.86,2.35-12.06,3.92-20.42-7.93,10.83-14.25,19.64-20.87,28.23-.68,.88-3.2,.78-4.72,.45-1.48-.32-2.77-1.52-2.13-1.14Z"/></svg>